<?xml version="1.0" encoding="UTF-8"?>
<svg id="_图层_1" data-name="图层 1" xmlns="http://www.w3.org/2000/svg" viewBox="0 0 195 195">
  <defs>
    <style>
      .cls-1 {
        fill: #fff;
      }

      .cls-2 {
        fill: #383a3a;
      }
    </style>
  </defs>
  <rect class="cls-2" width="194.78" height="194.78"/>
  <path class="cls-1" d="M23.7,15.07h54.53v14.32H39.46v15.25h34.17v14.32H39.46v27.72h-15.75V15.07Z"/>
  <path class="cls-1" d="M162.29,17.73l11.96,11.96-54.34,54.34-11.96-11.96,54.34-54.34Z"/>
  <path class="cls-1" d="M22.63,107.64h29.26c17.09,0,27.42,10.03,27.42,24.76v.2c0,16.68-12.89,25.17-28.95,25.17h-11.97v21.48h-15.75V107.64Zm28.24,36.12c7.88,0,12.48-4.71,12.48-10.84v-.21c0-7.06-4.91-10.84-12.79-10.84h-12.18v21.9h12.48Z"/>
  <path class="cls-1" d="M102.04,144.88v-.21c0-20.36,16.06-37.04,38.16-37.04s37.96,16.47,37.96,36.83v.2c0,20.36-16.06,37.04-38.16,37.04s-37.96-16.47-37.96-36.83Zm59.65,0v-.21c0-12.28-9-22.51-21.69-22.51s-21.48,10.03-21.48,22.3v.2c0,12.28,9,22.51,21.69,22.51s21.48-10.03,21.48-22.3Z"/>
</svg>